<svg id="Layer_1" data-name="Layer 1" xmlns="http://www.w3.org/2000/svg" width="63" height="62" viewBox="0 0 63 62"><defs><style>.cls-1,.cls-2{fill:none;stroke-miterlimit:10;stroke-width:2px;}.cls-1{stroke:#231f20;}.cls-2{stroke:#2196f3;}</style></defs><title>x</title><path class="cls-1" d="M59,41V10.52A1.52,1.52,0,0,0,57.48,9h-52A1.51,1.51,0,0,0,4,10.51V42H59ZM4,42v4.11A1.9,1.9,0,0,0,5.89,48H57.57A1.43,1.43,0,0,0,59,46.57V42ZM39.74,55c-.48-.21-1.07-.47-1.41-.66-.6-.33-.72-.37-.94-1.5s0-3.71-.14-4.84l-12-.06c-.09,1.14.11,3.67-.14,4.91s-.38,1.17-1,1.5c-.34.19-.91.45-1.39.65h0M20,55H42"/><line class="cls-2" x1="27" y1="17" x2="27" y2="13"/><line class="cls-2" x1="23.67" y1="18.98" x2="20.59" y2="17.2"/><line class="cls-2" x1="23.88" y1="22.98" x2="20.8" y2="24.76"/><line class="cls-2" x1="27" y1="25" x2="27" y2="29"/><line class="cls-2" x1="30.6" y1="18.62" x2="33.68" y2="16.83"/><line class="cls-2" x1="37.93" y1="30.22" x2="42.23" y2="34.52"/><polygon class="cls-2" points="30.07 22.36 42.71 27.71 37.64 29.93 35.42 35 30.07 22.36 30.07 22.36"/></svg>