<svg id="Layer_1" data-name="Layer 1" xmlns="http://www.w3.org/2000/svg" width="63" height="62" viewBox="0 0 63 62"><defs><style>.cls-1{fill:none;stroke:#231f20;stroke-width:2px;}.cls-1,.cls-2{stroke-miterlimit:10;}.cls-2{fill:#fff;stroke:#25b72f;stroke-width:3px;}</style></defs><title>x</title><polyline class="cls-1" points="46 33 46 28.66 46 15.46 36.5 6 10 6 10 15.78 10 28.66 10 54 37 54"/><polyline class="cls-1" points="36 6.58 36 16 37 16 45.42 16"/><path class="cls-1" d="M14,16H30M14,22H41M14,26H41M14,30H36M14,34H31M14,38H28M14,42H28M14,46h7"/><path class="cls-1" d="M56.68,45.28a12.2,12.2,0,1,1-12.2-12.2,12.2,12.2,0,0,1,12.2,12.2Z"/><polyline class="cls-2" points="51.29 40.56 42.4 49.44 38.79 45.83"/></svg>