<svg id="Layer_1" data-name="Layer 1" xmlns="http://www.w3.org/2000/svg" width="63" height="62" viewBox="0 0 63 62"><defs><style>.cls-1,.cls-2{fill:none;stroke-miterlimit:10;stroke-width:2px;}.cls-1{stroke:#231f20;}.cls-2{stroke:#ff5515;}</style></defs><title>x</title><path class="cls-1" d="M17.92,33A7,7,0,1,0,11,41V58h7V33Z"/><path class="cls-1" d="M45.08,33A7,7,0,1,1,52,41V58H45V33Z"/><rect class="cls-1" x="18" y="46" width="27" height="7"/><path class="cls-1" d="M53,24V21.06A14.06,14.06,0,0,0,38.94,7H24.06A14.06,14.06,0,0,0,10,21.06V24"/><path class="cls-1" d="M21,40a28.5,28.5,0,0,1,21,0"/><line class="cls-2" x1="29.15" y1="13" x2="34" y2="17.85"/><line class="cls-2" x1="34" y1="13" x2="29.15" y2="17.85"/><line class="cls-2" x1="18.5" y1="19" x2="23.35" y2="23.85"/><line class="cls-2" x1="23.35" y1="19" x2="18.5" y2="23.85"/><line class="cls-2" x1="39.5" y1="19" x2="44.35" y2="23.85"/><line class="cls-2" x1="44.35" y1="19" x2="39.5" y2="23.85"/></svg>