<svg id="Layer_1" data-name="Layer 1" xmlns="http://www.w3.org/2000/svg" width="63" height="62" viewBox="0 0 63 62"><defs><style>.cls-1{fill:none;stroke:#231f20;stroke-miterlimit:10;stroke-width:2px;}.cls-2{fill:#25b72f;}</style></defs><title>icons</title><path class="cls-1" d="M42.77,56H16V25H6.77L3,13,21.77,5a18.29,18.29,0,0,0,10,3,18.29,18.29,0,0,0,10-3C48.1,7.67,54.67,10.33,61,13L56.77,25H47V56H20.77"/><path class="cls-1" d="M22,5c0,5.49,4.09,10,9.31,10S41.78,10.49,41.78,5"/><polygon class="cls-2" points="31.21 23.09 32.67 27.59 37.4 27.59 33.57 30.37 35.03 34.86 31.21 32.08 27.38 34.86 28.84 30.37 25.02 27.59 29.75 27.59 31.21 23.09"/></svg>