<svg id="Layer_1" data-name="Layer 1" xmlns="http://www.w3.org/2000/svg" width="63" height="62" viewBox="0 0 63 62"><defs><style>.cls-1{fill:#25b72f;}.cls-1,.cls-2,.cls-3{stroke:#231f20;stroke-miterlimit:10;}.cls-1,.cls-2{stroke-width:2px;}.cls-2,.cls-3{fill:none;}.cls-3{stroke-width:2px;}</style></defs><title>12121</title><path class="cls-1" d="M24.78,26c.9-1.91,5-2,5-2a12.35,12.35,0,0,0,.28,4.23C30.44,29.76,33,29.7,33,34H24"/><path class="cls-2" d="M38.57,6H9.43A4.43,4.43,0,0,0,5,10.43v9.13A4.43,4.43,0,0,0,9.43,24H10a4.46,4.46,0,0,1,4.4,5.21L11,42.74A1.52,1.52,0,0,1,9.52,44H9.15C5.2,44,2,46.2,2,50.15v5.19A2.66,2.66,0,0,0,4.66,58H33.34A2.66,2.66,0,0,0,36,55.34V50.15C36,46.2,32.8,44,28.85,44H23.76a2.68,2.68,0,0,1-2.64-3.13l3.3-13.16A4.46,4.46,0,0,1,28.82,24h9.74A4.43,4.43,0,0,0,43,19.57V10.43A4.43,4.43,0,0,0,38.57,6Z"/><path class="cls-3" d="M43,10h4a5,5,0,0,1,5,5v0a5,5,0,0,1-5,5H43a0,0,0,0,1,0,0V10A0,0,0,0,1,43,10Z"/><line class="cls-2" x1="62" y1="15" x2="52" y2="15"/><line class="cls-2" x1="2" y1="49" x2="36" y2="49"/><line class="cls-2" x1="35" y1="5" x2="35" y2="20"/><line class="cls-2" x1="18" y1="11" x2="5" y2="11"/><line class="cls-2" x1="16" y1="15" x2="5" y2="15"/><line class="cls-2" x1="14" y1="19" x2="5" y2="19"/></svg>