<svg id="Layer_1" data-name="Layer 1" xmlns="http://www.w3.org/2000/svg" width="63" height="62" viewBox="0 0 63 62"><defs><style>.cls-1,.cls-2{fill:none;stroke-miterlimit:10;}.cls-1{stroke:#231f20;stroke-width:2px;}.cls-2{stroke:#ff9a22;stroke-width:3px;}</style></defs><title>industry-13</title><polyline class="cls-1" points="53 15 58 15 58 28.25 29 33.19 29 39"/><path class="cls-1" d="M34.77,56h0l-1-11c-.18-2.39-1.18-4.49-3.53-5a5.46,5.46,0,0,0-6.47,5l-1,11h0c-.64,0-2,.36-2,1,0,2,1.29,2,1.94,2H35.5c.64,0,1.27,0,1.27-2C36.77,56.36,35.41,56,34.77,56Z"/><rect class="cls-1" x="5" y="6" width="48" height="18" rx="4" ry="4"/><path class="cls-2" d="M25,11.5H13.5a2,2,0,0,0-2,2V18"/></svg>