<svg id="Layer_1" data-name="Layer 1" xmlns="http://www.w3.org/2000/svg" width="63" height="62" viewBox="0 0 63 62"><defs><style>.cls-1,.cls-2{fill:none;stroke-miterlimit:10;stroke-width:2px;}.cls-1{stroke:#231f20;}.cls-2{stroke:#2196f3;}</style></defs><title>x</title><path class="cls-1" d="M9.7,50.34,5.94,56.16s0,.06,0-.16H6v1.12a.86.86,0,0,0,.7.88H57a2.09,2.09,0,0,0,1-.88V56h-.31c0,.22,0,.19,0,.16l-3.76-5.82"/><path class="cls-1" d="M47,19h3.74A3.26,3.26,0,0,1,54,22.26V30"/><path class="cls-1" d="M10,30V22.26A3.26,3.26,0,0,1,13.26,19H17"/><path class="cls-1" d="M13,50H5.65A.65.65,0,0,1,5,49.35V29.65A.65.65,0,0,1,5.65,29h52.7a.65.65,0,0,1,.65.65v19.7a.65.65,0,0,1-.65.65H50m5,1V40.65a.65.65,0,0,0-.65-.65H10.65a.65.65,0,0,0-.65.65V51m30,2H12.3l4.5-9H47.2l4.5,9H38M10,33h3m35,0h3m1,0h4"/><polyline class="cls-1" points="48 28 48 10.09 40 3 18 3 18 10.19 18 23.68 18 28"/><polygon class="cls-1" points="38 11 47 11 47 10.1 38.9 3 38 3 38 11 38 11"/><path class="cls-2" d="M23,12h8m-8,5H42M23,22H42M30.3,24.71m-7.19,0"/></svg>