<svg id="Layer_1" data-name="Layer 1" xmlns="http://www.w3.org/2000/svg" width="63" height="62" viewBox="0 0 63 62"><defs><style>.cls-1{fill:none;}.cls-1,.cls-3{stroke:#231f20;stroke-miterlimit:10;stroke-width:2px;}.cls-2{fill:#ff5515;}.cls-3{fill:#ff9a22;}</style></defs><title>x</title><rect class="cls-1" x="4" y="47" width="56" height="9" rx="3.94" ry="3.94"/><polygon class="cls-2" points="42 40.38 39.5 38.63 37 40.38 37 36 42 36 42 40.38"/><rect class="cls-3" x="34" y="36" width="12" height="11"/><circle class="cls-1" cx="19.5" cy="35.5" r="6.5"/><circle class="cls-1" cx="11" cy="19" r="5"/><circle class="cls-1" cx="40" cy="10" r="5"/><polyline class="cls-1" points="43 15 43 20 37 20 37 15"/><polyline class="cls-1" points="42.79 18.4 46.58 22.63 42.79 26.85"/><polyline class="cls-1" points="36.95 18.4 33.16 22.63 36.95 26.85"/><line class="cls-1" x1="26" y1="35" x2="26" y2="46"/><line class="cls-1" x1="13" y1="35" x2="13" y2="46"/><line class="cls-1" x1="20.69" y1="29.13" x2="14" y2="20.81"/><line class="cls-1" x1="7.88" y1="23" x2="12.81" y2="33.19"/><line class="cls-1" x1="14.44" y1="20.81" x2="35.06" y2="12.13"/><line class="cls-1" x1="35.06" y1="7.31" x2="13.13" y2="13.81"/><circle class="cls-1" cx="12.5" cy="51.5" r="1.06"/><circle class="cls-1" cx="32.5" cy="51.5" r="1.05"/><circle class="cls-1" cx="22.5" cy="51.5" r="1.06"/><circle class="cls-1" cx="42.5" cy="51.5" r="0.95"/><circle class="cls-1" cx="52.5" cy="51.5" r="0.94"/><circle class="cls-1" cx="19.5" cy="35.5" r="1"/><circle class="cls-1" cx="10.8" cy="18.8" r="0.76"/><circle class="cls-1" cx="40" cy="10" r="0.7"/></svg>