<svg id="Layer_1" data-name="Layer 1" xmlns="http://www.w3.org/2000/svg" width="63" height="62" viewBox="0 0 63 62"><defs><style>.cls-1{fill:none;stroke:#231f20;stroke-miterlimit:10;stroke-width:2px;}.cls-2{fill:#ff5515;}</style></defs><title>x</title><path class="cls-1" d="M46,24V17A14.11,14.11,0,0,0,32.46,3,14,14,0,0,0,17.93,17v6.69a11.1,11.1,0,0,1-2.33,6.89,20.24,20.24,0,0,0,2,27.25L18.88,59h25.9l1.38-1.53a21.57,21.57,0,0,0,1.75-26.71A11.74,11.74,0,0,1,46,24Z"/><circle class="cls-1" cx="31.93" cy="17.38" r="9.04"/><path class="cls-1" d="M31.94,26.39a13.5,13.5,0,0,1-5,9c-5.9,4.93-13.85,4.16-15,4"/><path class="cls-1" d="M31.94,26.39a13.5,13.5,0,0,0,5,9c5.9,4.93,13.85,4.16,15,4"/><path class="cls-1" d="M32.25,8a8.75,8.75,0,0,1-9.74,8.6"/><path class="cls-1" d="M32.26,8a8.76,8.76,0,0,0,9.25,8.65"/><path class="cls-2" d="M31.45,49.55a8.86,8.86,0,0,0-2.18-2.11c-.81-.65-1.64-1.3-2.41-2a4.8,4.8,0,0,1-1.58-4.11,3.34,3.34,0,0,1,2.51-2.91,2.93,2.93,0,0,1,3.38,1.33,4.2,4.2,0,0,1,.32.68c0-.07.08-.15.11-.23a3.17,3.17,0,0,1,4.93-1.14,3.35,3.35,0,0,1,1.2,2.68A4.62,4.62,0,0,1,36,45.59c-.81.7-1.67,1.33-2.49,2A15.25,15.25,0,0,0,31.45,49.55Z"/></svg>