<svg id="Layer_1" data-name="Layer 1" xmlns="http://www.w3.org/2000/svg" width="63" height="62" viewBox="0 0 63 62"><defs><style>.cls-1{fill:none;}.cls-1,.cls-2{stroke:#231f20;stroke-miterlimit:10;stroke-width:2px;}.cls-2{fill:#ff9a22;}</style></defs><title>x</title><path class="cls-1" d="M57,48.33A2.69,2.69,0,0,1,54.3,51L8.7,51.05A2.69,2.69,0,0,1,6,48.38V18.05C6,16.58,7.21,16,9.14,16l45.6-.05A2.06,2.06,0,0,1,57,18V48.33Z"/><path class="cls-1" d="M49,33H12.77A6.77,6.77,0,0,1,6,26.23V18"/><path class="cls-1" d="M57,18v6.93A8.07,8.07,0,0,1,48.93,33H47"/><path class="cls-1" d="M37,16V12H26v4H23V11.26A2.33,2.33,0,0,1,25.4,9H37.6A2.33,2.33,0,0,1,40,11.25V16Z"/><rect class="cls-2" x="26" y="29" width="11" height="8"/></svg>