<svg id="Layer_1" data-name="Layer 1" xmlns="http://www.w3.org/2000/svg" width="63" height="62" viewBox="0 0 63 62"><defs><style>.cls-1{fill:none;stroke:#231f20;stroke-miterlimit:10;stroke-width:2px;}.cls-2{fill:#ff5515;}</style></defs><title>x</title><rect class="cls-1" x="7" y="36" width="10" height="19"/><rect class="cls-1" x="9" y="31" width="6" height="5"/><path class="cls-1" d="M18.16,18.45a16,16,0,1,1,2.46,21.72"/><path class="cls-1" d="M14.44,14.29C29-3.26,58.06,12.22,51.63,34.08A21.68,21.68,0,0,1,41.43,46.8L37.75,48"/><path class="cls-1" d="M20,48H58V47c0,3.87-5.13,7-9,7H20"/><line class="cls-1" x1="42" y1="31" x2="34" y2="39"/><line class="cls-1" x1="42" y1="25" x2="29" y2="38"/><polygon class="cls-2" points="15 30 9 30 9 17 15 22 15 30"/></svg>