<svg id="Layer_1" data-name="Layer 1" xmlns="http://www.w3.org/2000/svg" xmlns:xlink="http://www.w3.org/1999/xlink" width="126" height="116" viewBox="0 0 126 116"><defs><style>.cls-1,.cls-2{fill:none;}.cls-2{stroke:#231f20;stroke-miterlimit:10;stroke-width:3px;}.cls-3{fill:#2196f3;}.cls-4{isolation:isolate;}.cls-5{clip-path:url(#clip-path);}.cls-6{fill:#231f20;}</style><clipPath id="clip-path"><polygon class="cls-1" points="17.3 82.93 22.39 67.02 101.61 67.02 106.7 82.93 17.3 82.93"/></clipPath></defs><title>icons</title><rect class="cls-2" x="80.5" y="20.5" width="6" height="11"/><polyline class="cls-2" points="56 31.5 105.5 31.5 105.5 62.5 20.5 62.5 20.5 31.5 30 31.5"/><rect class="cls-2" x="1.5" y="87.5" width="123" height="27"/><polygon class="cls-2" points="122.92 87.5 2.57 87.5 19.64 62.5 105.85 62.5 122.92 87.5"/><rect class="cls-2" x="7.5" y="92.5" width="111" height="17"/><polyline class="cls-2" points="32 51.5 28.5 51.5 28.5 53.5 58.5 53.5 58.5 51.5 56 51.5"/><rect class="cls-2" x="67.5" y="38.5" width="32" height="15"/><rect class="cls-3" x="69" y="6" width="28" height="9"/><rect class="cls-2" x="64.5" y="1.5" width="37" height="18"/><polyline class="cls-2" points="55.5 22 55.5 53.5 31.5 53.5 31.5 28"/><polyline class="cls-2" points="31.5 28 31.5 16.5 35.24 19.18 38.5 16.24 41.16 19.18 43.83 16.24 46.5 19.18 49.83 16.24 52.5 19.18 55.5 16.24 55.5 28"/><circle class="cls-2" cx="62.16" cy="100.84" r="2.93"/><g class="cls-4"><g class="cls-5"><polyline class="cls-6" points="100.66 67.02 95.95 67.02 96.52 69.08 101.3 69.08 100.66 67.02"/><polyline class="cls-6" points="91.23 67.02 85.58 67.02 85.97 69.08 91.72 69.08 91.23 67.02"/><polyline class="cls-6" points="80.86 67.02 75.2 67.02 75.42 69.08 81.17 69.08 80.86 67.02"/><polyline class="cls-6" points="70.49 67.02 64.83 67.02 64.87 69.08 70.63 69.08 70.49 67.02"/><polyline class="cls-6" points="60.12 67.02 54.45 67.02 54.33 69.08 60.09 69.08 60.12 67.02"/><polyline class="cls-6" points="48.79 67.02 44.08 67.02 43.79 69.08 48.58 69.08 48.79 67.02"/><polyline class="cls-6" points="38.42 67.02 32.76 67.02 32.28 69.08 38.03 69.08 38.42 67.02"/><polyline class="cls-6" points="28.05 67.02 22.39 67.02 21.73 69.08 27.49 69.08 28.05 67.02"/><polyline class="cls-6" points="103.64 73.37 97.69 73.37 98.31 75.64 104.37 75.64 103.64 73.37"/><polyline class="cls-6" points="92.73 73.37 86.79 73.37 87.22 75.64 93.27 75.64 92.73 73.37"/><polyline class="cls-6" points="81.83 73.37 75.88 73.37 76.12 75.64 82.17 75.64 81.83 73.37"/><polyline class="cls-6" points="70.92 73.37 64.97 73.37 65.02 75.64 71.08 75.64 70.92 73.37"/><polyline class="cls-6" points="60.02 73.37 54.07 73.37 53.93 75.64 59.99 75.64 60.02 73.37"/><polyline class="cls-6" points="48.12 73.37 43.16 73.37 42.84 75.64 47.88 75.64 48.12 73.37"/><polyline class="cls-6" points="37.21 73.37 31.26 73.37 30.73 75.64 36.78 75.64 37.21 73.37"/><polyline class="cls-6" points="26.31 73.37 20.36 73.37 19.63 75.64 25.69 75.64 26.31 73.37"/><polyline class="cls-6" points="105.89 80.41 99.62 80.41 100.31 82.93 106.7 82.93 105.89 80.41"/><polyline class="cls-6" points="94.39 80.41 88.13 80.41 88.61 82.93 94.99 82.93 94.39 80.41"/><polyline class="cls-6" points="82.9 80.41 76.63 80.41 76.89 82.93 83.28 82.93 82.9 80.41"/><polyline class="cls-6" points="71.41 80.41 65.13 80.41 65.19 82.93 71.58 82.93 71.41 80.41"/><polyline class="cls-6" points="59.91 80.41 53.64 80.41 53.49 82.93 59.88 82.93 59.91 80.41"/><polyline class="cls-6" points="47.37 80.41 42.15 80.41 41.78 82.93 47.1 82.93 47.37 80.41"/><polyline class="cls-6" points="35.87 80.41 29.6 80.41 29.01 82.93 35.39 82.93 35.87 80.41"/><polyline class="cls-6" points="24.38 80.41 18.11 80.41 17.3 82.93 23.69 82.93 24.38 80.41"/></g></g></svg>