<svg id="Layer_1" data-name="Layer 1" xmlns="http://www.w3.org/2000/svg" width="116" height="116" viewBox="0 0 116 116"><defs><style>.cls-1,.cls-2{fill:none;stroke-miterlimit:10;stroke-width:3px;}.cls-1{stroke:#231f20;}.cls-2{stroke:#04a548;}</style></defs><title>icons</title><path class="cls-1" d="M103,56.46q0,.77,0,1.54A44.87,44.87,0,0,1,89.06,90.56"/><path class="cls-1" d="M99.66,41a44.66,44.66,0,0,1,1.55,4.44"/><path class="cls-1" d="M58,13A45,45,0,0,1,98.3,38"/><path class="cls-1" d="M50.77,13.58q2.16-.35,4.38-.49"/><path class="cls-1" d="M13,59.51q0-.75,0-1.51A44.86,44.86,0,0,1,26.22,26.14"/><path class="cls-1" d="M16.53,75.51q-.81-1.91-1.44-3.91"/><path class="cls-1" d="M58,103A45,45,0,0,1,17.8,78.25"/><path class="cls-1" d="M66.05,102.28q-2.15.39-4.38.57"/><path class="cls-1" d="M58,1.5a56.5,56.5,0,0,1,37.54,98.72"/><path class="cls-1" d="M49.63,2.12q2.72-.4,5.53-.55"/><path class="cls-1" d="M58,114.5a56.5,56.5,0,0,1-38.39-98"/><path class="cls-1" d="M66.34,113.89q-2.31.34-4.67.49"/><polyline class="cls-1" points="96.63 99.24 101.47 106.42 101.06 108.5 78.5 104.06 82.94 81.5 84.9 81.88 89.98 89.41"/><polyline class="cls-1" points="26.24 26.16 31.46 33.74 33.56 34.12 37.64 11.48 15.01 7.39 14.65 9.36 19.61 16.55"/><path class="cls-2" d="M75.66,43.94c.17-.35.32-.7.49-1.07A1.75,1.75,0,0,0,76,42.6c-.85-.86-1.7-1.73-2.58-2.56a.68.68,0,0,0-.6,0c-1.09.5-2.14,1.05-3.24,1.53-.58.25-1.09.72-1.87.36-1.62-.75-3.3-1.38-5-2.06a1.52,1.52,0,0,1-1-1c-.4-1.33-.92-2.61-1.37-3.92a.7.7,0,0,0-.79-.57c-1,0-2,0-3,0a.7.7,0,0,0-.8.55c-.39,1.15-.79,2.29-1.21,3.43-.22.58-.32,1.2-1.08,1.48-1.77.65-3.49,1.42-5.23,2.15a1.21,1.21,0,0,1-1.09-.1q-2-1-4-1.89a.6.6,0,0,0-.54.08Q41.28,41.31,40,42.6a.55.55,0,0,0-.05.49c.64,1.36,1.31,2.7,1.93,4.07a1.38,1.38,0,0,1,.06,1c-.75,1.9-1.54,3.78-2.34,5.65a.89.89,0,0,1-.48.41Q37.06,55,35,55.69a.71.71,0,0,0-.57.79q0,1.54,0,3.08a.67.67,0,0,0,.54.75c1.15.39,2.3.78,3.43,1.21.56.21,1.17.31,1.45,1,.66,1.76,1.42,3.49,2.15,5.23a1.23,1.23,0,0,1-.06,1.09c-.65,1.31-1.28,2.63-1.89,4a.7.7,0,0,0,.11.62q1.19,1.26,2.44,2.44a.66.66,0,0,0,.58.11c1.33-.61,2.66-1.23,4-1.89a1.3,1.3,0,0,1,1.19,0c1.67.7,3.34,1.38,5,2.07a1.5,1.5,0,0,1,1,1c.35,1.24.84,2.44,1.25,3.66.18.53.4.88,1.09.82a19.65,19.65,0,0,1,2.78,0,.76.76,0,0,0,.87-.63c.38-1.13.75-2.27,1.18-3.38.21-.53.25-1.14,1-1.41,1.8-.66,3.55-1.47,5.34-2.18a1.3,1.3,0,0,1,.92,0c1.35.61,2.68,1.26,4,1.92a.51.51,0,0,0,.7-.11q1.18-1.22,2.41-2.4a.51.51,0,0,0,.11-.71c-.66-1.33-1.31-2.66-1.92-4a1.3,1.3,0,0,1,0-.92c.76-1.89,1.55-3.77,2.36-5.64a.8.8,0,0,1,.43-.38Q79,61,81.14,60.3a.67.67,0,0,0,.52-.76c0-1,0-2.05,0-3.08a.66.66,0,0,0-.53-.75c-1.15-.39-2.3-.78-3.43-1.21-.55-.21-1.18-.25-1.46-1-.67-1.8-1.47-3.55-2.18-5.34"/><path class="cls-2" d="M58.07,50.36a8,8,0,1,0,0,15.93,8.16,8.16,0,0,0,7.91-8A8,8,0,0,0,58.07,50.36Z"/><path class="cls-2" d="M80.45,60.54l1.1-.4a1.75,1.75,0,0,0,.06-.32c0-1.21,0-2.42,0-3.63,0-.15-.23-.37-.41-.44-1.12-.42-2.26-.77-3.37-1.21-.59-.23-1.28-.26-1.58-1.07-.62-1.68-1.36-3.31-2-5a1.52,1.52,0,0,1,0-1.45c.66-1.22,1.2-2.5,1.81-3.74a.7.7,0,0,0-.16-1c-.74-.68-1.45-1.4-2.13-2.13a.7.7,0,0,0-1-.18c-1.09.54-2.18,1.07-3.28,1.57-.57.26-1.07.63-1.81.29-1.71-.79-3.47-1.47-5.22-2.18a1.21,1.21,0,0,1-.7-.84q-.7-2.08-1.47-4.14a.6.6,0,0,0-.44-.32q-1.81-.06-3.63,0a.55.55,0,0,0-.39.31c-.51,1.41-1,2.84-1.51,4.24a1.38,1.38,0,0,1-.64.73C51.79,40.48,49.9,41.25,48,42a.89.89,0,0,1-.63,0q-2-.92-4-1.89a.71.71,0,0,0-1,.16q-1.05,1.12-2.17,2.18a.67.67,0,0,0-.15.92c.54,1.09,1.07,2.17,1.57,3.28.25.55.61,1,.29,1.76-.78,1.72-1.46,3.47-2.18,5.22a1.23,1.23,0,0,1-.81.73c-1.39.47-2.77,1-4.14,1.47a.7.7,0,0,0-.36.52c0,1.15,0,2.3,0,3.46a.66.66,0,0,0,.33.49c1.37.51,2.75,1,4.14,1.47a1.3,1.3,0,0,1,.87.81c.68,1.67,1.39,3.34,2.08,5a1.5,1.5,0,0,1,0,1.45c-.63,1.12-1.13,2.32-1.7,3.47-.25.5-.34.91.19,1.35a19.65,19.65,0,0,1,2,2,.76.76,0,0,0,1.06.17c1.07-.53,2.13-1.07,3.23-1.55.52-.23,1-.63,1.7-.3,1.74.81,3.55,1.47,5.32,2.24a1.3,1.3,0,0,1,.63.67c.52,1.39,1,2.79,1.47,4.19a.51.51,0,0,0,.58.42q1.7,0,3.4,0a.51.51,0,0,0,.58-.42c.47-1.4,1-2.81,1.47-4.19a1.3,1.3,0,0,1,.63-.67c1.87-.8,3.76-1.57,5.66-2.32a.8.8,0,0,1,.57,0Q70.7,75,72.75,76a.67.67,0,0,0,.91-.17c.7-.75,1.42-1.48,2.17-2.17a.66.66,0,0,0,.16-.91c-.53-1.09-1.08-2.17-1.57-3.28-.24-.54-.66-1-.32-1.75.8-1.75,1.47-3.55,2.24-5.32"/></svg>