<svg id="Layer_1" data-name="Layer 1" xmlns="http://www.w3.org/2000/svg" width="139" height="111" viewBox="0 0 139 111"><defs><style>.cls-1{fill:none;stroke:#231f20;stroke-miterlimit:10;stroke-width:3px;}.cls-2{fill:#ff5515;}</style></defs><title>icons</title><rect class="cls-1" x="1.5" y="91.5" width="136" height="18" rx="9" ry="9"/><polygon class="cls-2" points="82 77 76 73 70 77 70 67 82 67 82 77"/><rect class="cls-1" x="62.5" y="66.5" width="27" height="25"/><line class="cls-1" x1="67" y1="85.5" x2="76" y2="85.5"/><polygon class="cls-2" points="117 77 111 73 105 77 105 67 117 67 117 77"/><rect class="cls-1" x="97.5" y="66.5" width="27" height="25"/><line class="cls-1" x1="102" y1="85.5" x2="111" y2="85.5"/><circle class="cls-1" cx="34.5" cy="65.5" r="15"/><circle class="cls-1" cx="16.5" cy="26.5" r="12"/><circle class="cls-1" cx="75.5" cy="13.5" r="12"/><polyline class="cls-1" points="82.5 22 82.5 35.5 68.5 35.5 68.5 23"/><polyline class="cls-1" points="82.16 33.84 90.81 43.5 82.16 53.16"/><polyline class="cls-1" points="68.81 33.84 60.16 43.5 68.81 53.16"/><line class="cls-1" x1="49.5" y1="65" x2="49.5" y2="90"/><line class="cls-1" x1="19.5" y1="65" x2="19.5" y2="90"/><line class="cls-1" x1="38.5" y1="51.5" x2="25.5" y2="32.5"/><line class="cls-1" x1="11.5" y1="37.5" x2="20.5" y2="58.5"/><line class="cls-1" x1="26.5" y1="32.5" x2="64.5" y2="19.5"/><line class="cls-1" x1="64.5" y1="8.5" x2="23.5" y2="16.5"/><circle class="cls-1" cx="16.5" cy="100.5" r="4"/><circle class="cls-1" cx="37.5" cy="100.5" r="4"/><circle class="cls-1" cx="58.5" cy="100.5" r="4"/><circle class="cls-1" cx="79.5" cy="100.5" r="4"/><circle class="cls-1" cx="100.5" cy="100.5" r="4"/><circle class="cls-1" cx="121.5" cy="100.5" r="4"/><circle class="cls-1" cx="34.5" cy="65.5" r="5"/><circle class="cls-1" cx="16.5" cy="26.5" r="4"/><circle class="cls-1" cx="75.5" cy="13.5" r="4"/></svg>