<?xml version="1.0" ?><svg fill="none" height="24" viewBox="0 0 24 24" width="24" xmlns="http://www.w3.org/2000/svg"><g clip-path="url(#clip0_14_10)"><path d="M8.5 22.4315L10.9311 10.8903M10.9311 10.8903L11.1538 9.81818C11.0695 10.1353 10.9915 10.4997 10.9311 10.8903ZM10.9311 10.8903C10.5873 13.1129 10.6213 16 13.5 16C16.0385 16 17.5 13.5455 17.5 11C17.5 8.0303 15.7231 6 12 6C8.27692 6 6.5 8.37879 6.5 10.5C6.5 12.6212 7.5 13.5 7.5 13.5M23 12C23 18.0751 18.0751 23 12 23C5.92487 23 1 18.0751 1 12C1 5.92487 5.92487 1 12 1C18.0751 1 23 5.92487 23 12Z" stroke="black" stroke-linecap="round" stroke-linejoin="round" stroke-width="2"/></g><defs><clipPath id="clip0_14_10"><rect fill="white" height="24" width="24"/></clipPath></defs></svg>