<?xml version="1.0" encoding="utf-8"?>
<!-- Generator: Adobe Illustrator 21.0.0, SVG Export Plug-In . SVG Version: 6.00 Build 0)  -->
<svg version="1.1" id="Layer_1" xmlns="http://www.w3.org/2000/svg" xmlns:xlink="http://www.w3.org/1999/xlink" x="0px" y="0px"
	 viewBox="0 0 88 83.2" style="enable-background:new 0 0 88 83.2;" xml:space="preserve">
<style type="text/css">
	.st0{fill:none;stroke:#231F20;stroke-width:3;stroke-miterlimit:10;}
	.st1{fill:none;stroke:#FF9A22;stroke-width:3;stroke-miterlimit:10;}
	.st2{enable-background:new    ;}
	.st3{fill:#FF9A22;}
</style>
<path class="st0" d="M31.7,66.7l11.8,14l11.8-14h22.2c5,0,9-4,9-9v-47c0-5-4-9-9-9h-67c-5,0-9,4-9,9v47c0,5,4,9,9,9H22"/>
<circle class="st1" cx="44" cy="34.7" r="20"/>
<g class="st2">
	<path class="st3" d="M46.8,24.5c0,0.4-0.1,0.7-0.2,1.1c-0.2,0.3-0.4,0.6-0.6,0.9c-0.3,0.3-0.6,0.5-0.9,0.6
		c-0.3,0.1-0.7,0.2-1.1,0.2c-0.4,0-0.7-0.1-1.1-0.2c-0.3-0.1-0.6-0.3-0.9-0.6c-0.3-0.3-0.5-0.5-0.6-0.9s-0.2-0.7-0.2-1.1
		s0.1-0.7,0.2-1.1c0.1-0.3,0.3-0.6,0.6-0.9s0.5-0.5,0.9-0.6c0.3-0.1,0.7-0.2,1.1-0.2c0.4,0,0.8,0.1,1.1,0.2s0.6,0.3,0.9,0.6
		s0.5,0.5,0.6,0.9C46.7,23.8,46.8,24.2,46.8,24.5z M46,29.2v17h-4v-17H46z"/>
</g>
</svg>
